<svg xmlns="http://www.w3.org/2000/svg" width="54.5" height="54.5" viewBox="0 0 54.5 54.5">
  <path id="Icon_awesome-user-circle" data-name="Icon awesome-user-circle" d="M27.25.563A27.25,27.25,0,1,0,54.5,27.813,27.245,27.245,0,0,0,27.25.563Zm0,10.548a9.669,9.669,0,1,1-9.669,9.669A9.67,9.67,0,0,1,27.25,11.111Zm0,37.8a21.056,21.056,0,0,1-16.1-7.494,12.251,12.251,0,0,1,10.823-6.571,2.689,2.689,0,0,1,.78.121,14.548,14.548,0,0,0,4.494.758,14.493,14.493,0,0,0,4.494-.758,2.689,2.689,0,0,1,.78-.121,12.251,12.251,0,0,1,10.823,6.571A21.056,21.056,0,0,1,27.25,48.909Z" transform="translate(0 -0.563)" fill="#0d6748"/>
</svg>
